# xmcd
#
# Track frame offsets: 
#        150
#        22311
#        35245
#        68918
#        145447
#        191988
#        214249
#        229587
#        241831
#        291819
#        305989
#
# Disc length: 4356 seconds
#
# Revision: 0
# Processed by: cddbd v1.5.2PL0 Copyright (c) Steve Scherf et al.
# Submitted via: ExactAudioCopy v0.95b4
#
DISCID=b611020b
DTITLE=Emerson Lake and Palmer  - Welcome Back My Friends - Disc 1 (Fost
DTITLE=ex Q8)  
DYEAR=1900
DGENRE=
TTITLE0=Emerson Lake Palmer  - Hoedown
TTITLE1=Emerson Lake Palmer  - Jerusalem
TTITLE2=Emerson Lake Palmer  - Toccata
TTITLE3=Emerson Lake Palmer  - [Emerson Lake and Palmer] Tarkus (Part 1)
TTITLE4=Emerson Lake Palmer  - [Emerson Lake and Palmer] Tarkus (Part 2)
TTITLE5=Emerson Lake Palmer  - Take A Pebble
TTITLE6=Emerson Lake Palmer  - You Turn Me On
TTITLE7=Emerson Lake Palmer  - Lucky Man
TTITLE8=Emerson Lake Palmer  - Piano Improvisation
TTITLE9=Emerson Lake Palmer  - [Emerson Lake and Palmer] Take A Pebble (
TTITLE9=Conclusion)
TTITLE10=Emerson Lake Palmer  - The Sheriff
EXTD=
EXTT0=
EXTT1=
EXTT2=
EXTT3=
EXTT4=
EXTT5=
EXTT6=
EXTT7=
EXTT8=
EXTT9=
EXTT10=
PLAYORDER=
